<svg xmlns="http://www.w3.org/2000/svg" width="900" height="520">
<rect width="100%" height="100%" fill="white"/>
<text x="450.0" y="30" text-anchor="middle" font-size="20">CPI vs Cycles</text>
<line x1="70" y1="450" x2="830" y2="450" stroke="black"/>
<line x1="70" y1="70" x2="70" y2="450" stroke="black"/>
<text x="450.0" y="500" text-anchor="middle">BENCH_MAX_CYCLES</text>
<text x="20" y="260.0" transform="rotate(-90 20,260.0)" text-anchor="middle">CPI</text>
<line x1="70" y1="450.00" x2="830" y2="450.00" stroke="#d0d0d0" stroke-dasharray="4 4"/>
<text x="60" y="454.00" text-anchor="end" font-size="11">0.0000</text>
<line x1="70" y1="374.00" x2="830" y2="374.00" stroke="#d0d0d0" stroke-dasharray="4 4"/>
<text x="60" y="378.00" text-anchor="end" font-size="11">0.4000</text>
<line x1="70" y1="298.00" x2="830" y2="298.00" stroke="#d0d0d0" stroke-dasharray="4 4"/>
<text x="60" y="302.00" text-anchor="end" font-size="11">0.8000</text>
<line x1="70" y1="222.00" x2="830" y2="222.00" stroke="#d0d0d0" stroke-dasharray="4 4"/>
<text x="60" y="226.00" text-anchor="end" font-size="11">1.2000</text>
<line x1="70" y1="146.00" x2="830" y2="146.00" stroke="#d0d0d0" stroke-dasharray="4 4"/>
<text x="60" y="150.00" text-anchor="end" font-size="11">1.6000</text>
<line x1="70" y1="70.00" x2="830" y2="70.00" stroke="#d0d0d0" stroke-dasharray="4 4"/>
<text x="60" y="74.00" text-anchor="end" font-size="11">2.0000</text>
<line x1="70.00" y1="70" x2="70.00" y2="450" stroke="#e2e2e2" stroke-dasharray="4 4"/>
<text x="70.00" y="472" text-anchor="middle" font-size="11">1M</text>
<line x1="323.33" y1="70" x2="323.33" y2="450" stroke="#e2e2e2" stroke-dasharray="4 4"/>
<text x="323.33" y="472" text-anchor="middle" font-size="11">10M</text>
<line x1="500.41" y1="70" x2="500.41" y2="450" stroke="#e2e2e2" stroke-dasharray="4 4"/>
<text x="500.41" y="472" text-anchor="middle" font-size="11">50M</text>
<line x1="576.67" y1="70" x2="576.67" y2="450" stroke="#e2e2e2" stroke-dasharray="4 4"/>
<text x="576.67" y="472" text-anchor="middle" font-size="11">100M</text>
<line x1="652.93" y1="70" x2="652.93" y2="450" stroke="#e2e2e2" stroke-dasharray="4 4"/>
<text x="652.93" y="472" text-anchor="middle" font-size="11">200M</text>
<line x1="753.74" y1="70" x2="753.74" y2="450" stroke="#e2e2e2" stroke-dasharray="4 4"/>
<text x="753.74" y="472" text-anchor="middle" font-size="11">500M</text>
<line x1="798.35" y1="70" x2="798.35" y2="450" stroke="#e2e2e2" stroke-dasharray="4 4"/>
<text x="798.35" y="472" text-anchor="middle" font-size="11">750M</text>
<line x1="830.00" y1="70" x2="830.00" y2="450" stroke="#e2e2e2" stroke-dasharray="4 4"/>
<text x="830.00" y="472" text-anchor="middle" font-size="11">1000M</text>
<polyline fill="none" stroke="#1f77b4" stroke-width="2" points="70.00,206.39 323.33,169.95 500.41,166.00 576.67,165.50 652.93,165.25 753.74,165.10 798.35,165.07 830.00,165.05"/>
<circle cx="70.00" cy="206.39" r="4" fill="#1f77b4" stroke="none" stroke-width="0"/>
<title>static: BENCH_MAX_CYCLES=1000000, value=1.2821</title>
<text x="70.00" y="196.39" text-anchor="middle" font-size="10" fill="#1f77b4">1.2821</text>
<circle cx="323.33" cy="169.95" r="4" fill="#1f77b4" stroke="none" stroke-width="0"/>
<title>static: BENCH_MAX_CYCLES=10000000, value=1.4739</title>
<text x="323.33" y="159.95" text-anchor="middle" font-size="10" fill="#1f77b4">1.4739</text>
<circle cx="500.41" cy="166.00" r="4" fill="#1f77b4" stroke="none" stroke-width="0"/>
<title>static: BENCH_MAX_CYCLES=50000000, value=1.4947</title>
<text x="500.41" y="156.00" text-anchor="middle" font-size="10" fill="#1f77b4">1.4947</text>
<circle cx="576.67" cy="165.50" r="4" fill="#1f77b4" stroke="none" stroke-width="0"/>
<title>static: BENCH_MAX_CYCLES=100000000, value=1.4974</title>
<text x="576.67" y="155.50" text-anchor="middle" font-size="10" fill="#1f77b4">1.4974</text>
<circle cx="652.93" cy="165.25" r="4" fill="#1f77b4" stroke="none" stroke-width="0"/>
<title>static: BENCH_MAX_CYCLES=200000000, value=1.4987</title>
<text x="652.93" y="155.25" text-anchor="middle" font-size="10" fill="#1f77b4">1.4987</text>
<circle cx="753.74" cy="165.10" r="4" fill="#1f77b4" stroke="none" stroke-width="0"/>
<title>static: BENCH_MAX_CYCLES=500000000, value=1.4995</title>
<text x="753.74" y="155.10" text-anchor="middle" font-size="10" fill="#1f77b4">1.4995</text>
<circle cx="798.35" cy="165.07" r="4" fill="#1f77b4" stroke="none" stroke-width="0"/>
<title>static: BENCH_MAX_CYCLES=750000000, value=1.4996</title>
<text x="798.35" y="155.07" text-anchor="middle" font-size="10" fill="#1f77b4">1.4996</text>
<circle cx="830.00" cy="165.05" r="4" fill="#1f77b4" stroke="none" stroke-width="0"/>
<title>static: BENCH_MAX_CYCLES=1000000000, value=1.4997</title>
<text x="830.00" y="155.05" text-anchor="middle" font-size="10" fill="#1f77b4">1.4997</text>
<rect x="690" y="46" width="14" height="14" fill="#1f77b4" stroke="none" stroke-width="0"/>
<text x="710" y="58" font-size="14">static</text>
<polyline fill="none" stroke="#d62728" stroke-width="2" points="70.00,245.07 323.33,258.61 500.41,259.72 576.67,259.86 652.93,259.93 753.74,259.97 798.35,259.98 830.00,259.99"/>
<circle cx="70.00" cy="245.07" r="4" fill="#d62728" stroke="none" stroke-width="0"/>
<title>ghr_off: BENCH_MAX_CYCLES=1000000, value=1.0786</title>
<text x="70.00" y="235.07" text-anchor="middle" font-size="10" fill="#d62728">1.0786</text>
<circle cx="323.33" cy="258.61" r="4" fill="#d62728" stroke="none" stroke-width="0"/>
<title>ghr_off: BENCH_MAX_CYCLES=10000000, value=1.0073</title>
<text x="323.33" y="248.61" text-anchor="middle" font-size="10" fill="#d62728">1.0073</text>
<circle cx="500.41" cy="259.72" r="4" fill="#d62728" stroke="none" stroke-width="0"/>
<title>ghr_off: BENCH_MAX_CYCLES=50000000, value=1.0015</title>
<text x="500.41" y="249.72" text-anchor="middle" font-size="10" fill="#d62728">1.0015</text>
<circle cx="576.67" cy="259.86" r="4" fill="#d62728" stroke="none" stroke-width="0"/>
<title>ghr_off: BENCH_MAX_CYCLES=100000000, value=1.0007</title>
<text x="576.67" y="249.86" text-anchor="middle" font-size="10" fill="#d62728">1.0007</text>
<circle cx="652.93" cy="259.93" r="4" fill="#d62728" stroke="none" stroke-width="0"/>
<title>ghr_off: BENCH_MAX_CYCLES=200000000, value=1.0004</title>
<text x="652.93" y="249.93" text-anchor="middle" font-size="10" fill="#d62728">1.0004</text>
<circle cx="753.74" cy="259.97" r="4" fill="#d62728" stroke="none" stroke-width="0"/>
<title>ghr_off: BENCH_MAX_CYCLES=500000000, value=1.0001</title>
<text x="753.74" y="249.97" text-anchor="middle" font-size="10" fill="#d62728">1.0001</text>
<circle cx="798.35" cy="259.98" r="4" fill="#d62728" stroke="none" stroke-width="0"/>
<title>ghr_off: BENCH_MAX_CYCLES=750000000, value=1.0001</title>
<text x="798.35" y="249.98" text-anchor="middle" font-size="10" fill="#d62728">1.0001</text>
<circle cx="830.00" cy="259.99" r="4" fill="#d62728" stroke="none" stroke-width="0"/>
<title>ghr_off: BENCH_MAX_CYCLES=1000000000, value=1.0001</title>
<text x="830.00" y="249.99" text-anchor="middle" font-size="10" fill="#d62728">1.0001</text>
<rect x="690" y="68" width="14" height="14" fill="#d62728" stroke="none" stroke-width="0"/>
<text x="710" y="80" font-size="14">ghr_off</text>
<polyline fill="none" stroke="#2ca02c" stroke-width="2" stroke-dasharray="8 5" points="70.00,244.99 323.33,258.60 500.41,259.72 576.67,259.86 652.93,259.93 753.74,259.97 798.35,259.98 830.00,259.99"/>
<circle cx="70.00" cy="244.99" r="4" fill="white" stroke="#2ca02c" stroke-width="2"/>
<title>ghr_on: BENCH_MAX_CYCLES=1000000, value=1.0790</title>
<text x="70.00" y="260.99" text-anchor="middle" font-size="10" fill="#2ca02c">1.0790</text>
<circle cx="323.33" cy="258.60" r="4" fill="white" stroke="#2ca02c" stroke-width="2"/>
<title>ghr_on: BENCH_MAX_CYCLES=10000000, value=1.0074</title>
<text x="323.33" y="274.60" text-anchor="middle" font-size="10" fill="#2ca02c">1.0074</text>
<circle cx="500.41" cy="259.72" r="4" fill="white" stroke="#2ca02c" stroke-width="2"/>
<title>ghr_on: BENCH_MAX_CYCLES=50000000, value=1.0015</title>
<text x="500.41" y="275.72" text-anchor="middle" font-size="10" fill="#2ca02c">1.0015</text>
<circle cx="576.67" cy="259.86" r="4" fill="white" stroke="#2ca02c" stroke-width="2"/>
<title>ghr_on: BENCH_MAX_CYCLES=100000000, value=1.0007</title>
<text x="576.67" y="275.86" text-anchor="middle" font-size="10" fill="#2ca02c">1.0007</text>
<circle cx="652.93" cy="259.93" r="4" fill="white" stroke="#2ca02c" stroke-width="2"/>
<title>ghr_on: BENCH_MAX_CYCLES=200000000, value=1.0004</title>
<text x="652.93" y="275.93" text-anchor="middle" font-size="10" fill="#2ca02c">1.0004</text>
<circle cx="753.74" cy="259.97" r="4" fill="white" stroke="#2ca02c" stroke-width="2"/>
<title>ghr_on: BENCH_MAX_CYCLES=500000000, value=1.0001</title>
<text x="753.74" y="275.97" text-anchor="middle" font-size="10" fill="#2ca02c">1.0001</text>
<circle cx="798.35" cy="259.98" r="4" fill="white" stroke="#2ca02c" stroke-width="2"/>
<title>ghr_on: BENCH_MAX_CYCLES=750000000, value=1.0001</title>
<text x="798.35" y="275.98" text-anchor="middle" font-size="10" fill="#2ca02c">1.0001</text>
<circle cx="830.00" cy="259.99" r="4" fill="white" stroke="#2ca02c" stroke-width="2"/>
<title>ghr_on: BENCH_MAX_CYCLES=1000000000, value=1.0001</title>
<text x="830.00" y="275.99" text-anchor="middle" font-size="10" fill="#2ca02c">1.0001</text>
<rect x="690" y="90" width="14" height="14" fill="white" stroke="#2ca02c" stroke-width="2"/>
<text x="710" y="102" font-size="14">ghr_on</text>
</svg>