<svg xmlns="http://www.w3.org/2000/svg" width="900" height="520">
<rect width="100%" height="100%" fill="white"/>
<text x="450.0" y="30" text-anchor="middle" font-size="20">GHR-On Best Accuracy vs GHR_BITS at 1000M</text>
<line x1="70" y1="450" x2="830" y2="450" stroke="black"/>
<line x1="70" y1="70" x2="70" y2="450" stroke="black"/>
<text x="450.0" y="500" text-anchor="middle">GHR_BITS</text>
<text x="20" y="260.0" transform="rotate(-90 20,260.0)" text-anchor="middle">Branch Accuracy (%)</text>
<line x1="70" y1="450.00" x2="830" y2="450.00" stroke="#d0d0d0" stroke-dasharray="4 4"/>
<text x="60" y="454.00" text-anchor="end" font-size="11">0.0000</text>
<line x1="70" y1="374.00" x2="830" y2="374.00" stroke="#d0d0d0" stroke-dasharray="4 4"/>
<text x="60" y="378.00" text-anchor="end" font-size="11">20.000</text>
<line x1="70" y1="298.00" x2="830" y2="298.00" stroke="#d0d0d0" stroke-dasharray="4 4"/>
<text x="60" y="302.00" text-anchor="end" font-size="11">40.000</text>
<line x1="70" y1="222.00" x2="830" y2="222.00" stroke="#d0d0d0" stroke-dasharray="4 4"/>
<text x="60" y="226.00" text-anchor="end" font-size="11">60.000</text>
<line x1="70" y1="146.00" x2="830" y2="146.00" stroke="#d0d0d0" stroke-dasharray="4 4"/>
<text x="60" y="150.00" text-anchor="end" font-size="11">80.000</text>
<line x1="70" y1="70.00" x2="830" y2="70.00" stroke="#d0d0d0" stroke-dasharray="4 4"/>
<text x="60" y="74.00" text-anchor="end" font-size="11">100.00</text>
<line x1="70.00" y1="70" x2="70.00" y2="450" stroke="#e2e2e2" stroke-dasharray="4 4"/>
<text x="70.00" y="472" text-anchor="middle" font-size="11">0</text>
<line x1="146.00" y1="70" x2="146.00" y2="450" stroke="#e2e2e2" stroke-dasharray="4 4"/>
<text x="146.00" y="472" text-anchor="middle" font-size="11">1</text>
<line x1="222.00" y1="70" x2="222.00" y2="450" stroke="#e2e2e2" stroke-dasharray="4 4"/>
<text x="222.00" y="472" text-anchor="middle" font-size="11">2</text>
<line x1="298.00" y1="70" x2="298.00" y2="450" stroke="#e2e2e2" stroke-dasharray="4 4"/>
<text x="298.00" y="472" text-anchor="middle" font-size="11">3</text>
<line x1="374.00" y1="70" x2="374.00" y2="450" stroke="#e2e2e2" stroke-dasharray="4 4"/>
<text x="374.00" y="472" text-anchor="middle" font-size="11">4</text>
<line x1="450.00" y1="70" x2="450.00" y2="450" stroke="#e2e2e2" stroke-dasharray="4 4"/>
<text x="450.00" y="472" text-anchor="middle" font-size="11">5</text>
<line x1="526.00" y1="70" x2="526.00" y2="450" stroke="#e2e2e2" stroke-dasharray="4 4"/>
<text x="526.00" y="472" text-anchor="middle" font-size="11">6</text>
<line x1="602.00" y1="70" x2="602.00" y2="450" stroke="#e2e2e2" stroke-dasharray="4 4"/>
<text x="602.00" y="472" text-anchor="middle" font-size="11">7</text>
<line x1="678.00" y1="70" x2="678.00" y2="450" stroke="#e2e2e2" stroke-dasharray="4 4"/>
<text x="678.00" y="472" text-anchor="middle" font-size="11">8</text>
<line x1="754.00" y1="70" x2="754.00" y2="450" stroke="#e2e2e2" stroke-dasharray="4 4"/>
<text x="754.00" y="472" text-anchor="middle" font-size="11">9</text>
<line x1="830.00" y1="70" x2="830.00" y2="450" stroke="#e2e2e2" stroke-dasharray="4 4"/>
<text x="830.00" y="472" text-anchor="middle" font-size="11">10</text>
<polyline fill="none" stroke="#1f77b4" stroke-width="2" points="70.00,108.42 146.00,110.10 222.00,111.21 298.00,117.34 374.00,134.02 450.00,121.03 526.00,115.32 602.00,112.48 678.00,111.25 754.00,117.30 830.00,108.96"/>
<circle cx="70.00" cy="108.42" r="4" fill="#1f77b4" stroke="none" stroke-width="0"/>
<title>best_per_ghr: ghr_bits=0, value=89.8897</title>
<text x="70.00" y="98.42" text-anchor="middle" font-size="10" fill="#1f77b4">89.890</text>
<circle cx="146.00" cy="110.10" r="4" fill="#1f77b4" stroke="none" stroke-width="0"/>
<title>best_per_ghr: ghr_bits=1, value=89.4463</title>
<text x="146.00" y="100.10" text-anchor="middle" font-size="10" fill="#1f77b4">89.446</text>
<circle cx="222.00" cy="111.21" r="4" fill="#1f77b4" stroke="none" stroke-width="0"/>
<title>best_per_ghr: ghr_bits=2, value=89.1557</title>
<text x="222.00" y="101.21" text-anchor="middle" font-size="10" fill="#1f77b4">89.156</text>
<circle cx="298.00" cy="117.34" r="4" fill="#1f77b4" stroke="none" stroke-width="0"/>
<title>best_per_ghr: ghr_bits=3, value=87.5428</title>
<text x="298.00" y="107.34" text-anchor="middle" font-size="10" fill="#1f77b4">87.543</text>
<circle cx="374.00" cy="134.02" r="4" fill="#1f77b4" stroke="none" stroke-width="0"/>
<title>best_per_ghr: ghr_bits=4, value=83.1524</title>
<text x="374.00" y="124.02" text-anchor="middle" font-size="10" fill="#1f77b4">83.152</text>
<circle cx="450.00" cy="121.03" r="4" fill="#1f77b4" stroke="none" stroke-width="0"/>
<title>best_per_ghr: ghr_bits=5, value=86.5711</title>
<text x="450.00" y="111.03" text-anchor="middle" font-size="10" fill="#1f77b4">86.571</text>
<circle cx="526.00" cy="115.32" r="4" fill="#1f77b4" stroke="none" stroke-width="0"/>
<title>best_per_ghr: ghr_bits=6, value=88.0732</title>
<text x="526.00" y="105.32" text-anchor="middle" font-size="10" fill="#1f77b4">88.073</text>
<circle cx="602.00" cy="112.48" r="4" fill="#1f77b4" stroke="none" stroke-width="0"/>
<title>best_per_ghr: ghr_bits=7, value=88.8202</title>
<text x="602.00" y="102.48" text-anchor="middle" font-size="10" fill="#1f77b4">88.820</text>
<circle cx="678.00" cy="111.25" r="4" fill="#1f77b4" stroke="none" stroke-width="0"/>
<title>best_per_ghr: ghr_bits=8, value=89.1441</title>
<text x="678.00" y="101.25" text-anchor="middle" font-size="10" fill="#1f77b4">89.144</text>
<circle cx="754.00" cy="117.30" r="4" fill="#1f77b4" stroke="none" stroke-width="0"/>
<title>best_per_ghr: ghr_bits=9, value=87.5514</title>
<text x="754.00" y="107.30" text-anchor="middle" font-size="10" fill="#1f77b4">87.551</text>
<circle cx="830.00" cy="108.96" r="4" fill="#1f77b4" stroke="none" stroke-width="0"/>
<title>best_per_ghr: ghr_bits=10, value=89.7470</title>
<text x="830.00" y="98.96" text-anchor="middle" font-size="10" fill="#1f77b4">89.747</text>
<rect x="690" y="46" width="14" height="14" fill="#1f77b4" stroke="none" stroke-width="0"/>
<text x="710" y="58" font-size="14">best_per_ghr</text>
</svg>